<svg width="175" height="21" viewBox="0 0 175 21" fill="none" xmlns="http://www.w3.org/2000/svg">
<path d="M0.735 7.151C0.735 6.311 0.868 5.562 1.134 4.904C1.414 4.232 1.799 3.665 2.289 3.203C2.793 2.741 3.402 2.391 4.116 2.153C4.83 1.901 5.628 1.775 6.51 1.775C7.392 1.775 8.19 1.901 8.904 2.153C9.618 2.391 10.22 2.741 10.71 3.203C11.214 3.665 11.599 4.232 11.865 4.904C12.145 5.562 12.285 6.311 12.285 7.151C12.285 7.977 12.145 8.719 11.865 9.377C11.599 10.035 11.214 10.595 10.71 11.057C10.22 11.519 9.618 11.876 8.904 12.128C8.19 12.38 7.392 12.506 6.51 12.506C5.628 12.506 4.83 12.38 4.116 12.128C3.402 11.876 2.793 11.519 2.289 11.057C1.799 10.595 1.414 10.035 1.134 9.377C0.868 8.719 0.735 7.977 0.735 7.151ZM5.544 13.766V17.21H17.787V19.751H2.247V13.766H5.544ZM17.577 7.844V14.312H14.28V1.775H17.577V5.282H19.404V7.844H17.577ZM6.51 9.944C7.224 9.944 7.812 9.699 8.274 9.209C8.75 8.719 8.988 8.033 8.988 7.151C8.988 6.255 8.75 5.562 8.274 5.072C7.812 4.582 7.224 4.337 6.51 4.337C5.796 4.337 5.201 4.582 4.725 5.072C4.263 5.562 4.032 6.255 4.032 7.151C4.032 8.033 4.263 8.719 4.725 9.209C5.201 9.699 5.796 9.944 6.51 9.944ZM30.816 1.985V4.547H26.532V6.395C26.532 6.563 26.525 6.731 26.511 6.899C26.497 7.053 26.476 7.207 26.448 7.361L31.131 10.175L29.556 12.401L25.251 9.818C24.187 11.036 22.43 11.925 19.98 12.485L18.573 10.175C19.343 10.007 20.015 9.818 20.589 9.608C21.177 9.398 21.667 9.146 22.059 8.852C22.451 8.558 22.745 8.208 22.941 7.802C23.137 7.396 23.235 6.92 23.235 6.374V4.547H19.161V1.985H30.816ZM23.613 13.766V17.21H36.486V19.751H20.316V13.766H23.613ZM36.276 1.775V14.312H32.979V7.928L30.354 8.516V5.891L32.979 5.303V1.775H36.276ZM40.595 16.769H47.714V13.934H41.624V2.195H44.921V5.639H53.804V2.195H57.101V13.934H51.011V16.769H58.13V19.331H40.595V16.769ZM53.804 8.201H44.921V11.372H53.804V8.201ZM63.116 13.766V17.21H75.989V19.751H59.819V13.766H63.116ZM58.937 4.547V1.985H69.206V12.296H65.909V4.547H58.937ZM75.779 1.775V14.312H72.482V7.907L69.836 8.516V5.891L72.482 5.282V1.775H75.779ZM91.4589 7.844C91.4589 8.642 91.1369 9.286 90.4929 9.776C89.8629 10.266 88.8199 10.574 87.3639 10.7V11.729H92.2569V14.291H79.5729V11.729H84.0669V10.679C82.6809 10.539 81.6869 10.224 81.0849 9.734C80.4969 9.244 80.2029 8.614 80.2029 7.844C80.2029 7.382 80.3079 6.976 80.5179 6.626C80.7279 6.262 81.0569 5.954 81.5049 5.702C81.9529 5.45 82.5269 5.261 83.2269 5.135C83.9409 4.995 84.8019 4.925 85.8099 4.925C86.8179 4.925 87.6789 4.995 88.3929 5.135C89.1209 5.261 89.7089 5.45 90.1569 5.702C90.6049 5.954 90.9339 6.262 91.1439 6.626C91.3539 6.976 91.4589 7.382 91.4589 7.844ZM96.7929 8.894V15.761H93.4959V1.775H96.7929V6.332H98.6199V8.894H96.7929ZM83.8569 15.236V17.21H97.0029V19.751H80.5599V15.236H83.8569ZM87.4689 2.027H91.9629V4.358H79.6779V2.027H84.1719V0.872H87.4689V2.027ZM88.1619 7.844C88.1619 7.564 87.9519 7.361 87.5319 7.235C87.1119 7.109 86.5379 7.046 85.8099 7.046C84.2699 7.046 83.4999 7.312 83.4999 7.844C83.4999 8.376 84.2699 8.642 85.8099 8.642C86.5379 8.642 87.1119 8.579 87.5319 8.453C87.9519 8.327 88.1619 8.124 88.1619 7.844ZM107.323 20.171C106.007 20.171 104.831 20.094 103.795 19.94C102.759 19.786 101.877 19.548 101.149 19.226C100.435 18.904 99.889 18.505 99.511 18.029C99.133 17.553 98.944 16.986 98.944 16.328C98.944 15.684 99.133 15.124 99.511 14.648C99.889 14.158 100.435 13.759 101.149 13.451C101.877 13.129 102.759 12.891 103.795 12.737C104.831 12.583 106.007 12.506 107.323 12.506C108.639 12.506 109.815 12.583 110.851 12.737C111.887 12.891 112.762 13.129 113.476 13.451C114.204 13.759 114.757 14.158 115.135 14.648C115.513 15.124 115.702 15.684 115.702 16.328C115.702 16.986 115.513 17.553 115.135 18.029C114.757 18.505 114.204 18.904 113.476 19.226C112.762 19.548 111.887 19.786 110.851 19.94C109.815 20.094 108.639 20.171 107.323 20.171ZM98.44 4.547V1.985H108.709V11.456H105.412V4.547H98.44ZM115.282 1.775V12.17H111.985V9.524L109.339 10.007V7.508L111.985 6.983V5.66L109.339 6.164V3.665L111.985 3.14V1.775H115.282ZM107.323 17.609C108.933 17.609 110.179 17.511 111.061 17.315C111.957 17.119 112.405 16.79 112.405 16.328C112.405 15.866 111.957 15.537 111.061 15.341C110.179 15.145 108.933 15.047 107.323 15.047C105.713 15.047 104.46 15.145 103.564 15.341C102.682 15.537 102.241 15.866 102.241 16.328C102.241 16.79 102.682 17.119 103.564 17.315C104.46 17.511 105.713 17.609 107.323 17.609ZM127.182 9.629C127.182 10.693 127.07 11.666 126.846 12.548L132.222 16.538L130.605 18.974L125.691 15.278C125.159 16.118 124.459 16.846 123.591 17.462C122.723 18.078 121.666 18.589 120.42 18.995L118.971 16.559C119.811 16.265 120.539 15.936 121.155 15.572C121.771 15.208 122.282 14.76 122.688 14.228C123.094 13.682 123.395 13.038 123.591 12.296C123.787 11.554 123.885 10.658 123.885 9.608V1.943H127.182V9.629ZM136.716 19.331H133.419V1.775H136.716V19.331ZM148.401 2.279V4.904C148.401 5.912 148.261 6.857 147.981 7.739L155.163 11.729L153.546 14.039L146.637 10.217C145.111 12.079 142.605 13.423 139.119 14.249L137.88 11.834C140.4 11.316 142.227 10.49 143.361 9.356C144.509 8.208 145.083 6.717 145.083 4.883V2.279H148.401ZM137.67 16.769H155.205V19.331H137.67V16.769ZM174.618 12.716V19.751H156.894V12.716H174.618ZM159.036 4.547V5.555H164.286V8.117H159.036V9.104H164.706V11.666H156.012V1.985H164.706V4.547H159.036ZM167.016 11.771V7.718L164.895 8.201V5.576L167.016 5.093V1.775H170.04V11.771H167.016ZM174.618 11.771H171.573V1.775H174.618V11.771ZM160.191 15.257V17.21H171.321V15.257H160.191Z" fill="white"/>
</svg>
