<svg width="204" height="37" viewBox="0 0 204 37" fill="none" xmlns="http://www.w3.org/2000/svg">
<path d="M16.4586 12.1218H11.5781V9.71094H24.0734V12.1218H19.1745V27.5571H16.4586V12.1218Z" fill="black"/>
<path d="M25.9531 9.69531H37.3459V12.2679H28.6727V17.3431H36.089V19.743H28.6727V24.9873H37.3459V27.5599H25.9531V9.69531Z" fill="black"/>
<path d="M51.935 22.5446C51.6419 24.0335 50.8514 25.3787 49.6932 26.3593C48.5374 27.2511 47.1101 27.7182 45.6507 27.6823C44.4031 27.6978 43.1794 27.3394 42.1373 26.6533C41.2688 26.1169 40.5525 25.3665 40.0572 24.474C39.9286 24.2057 39.8073 23.9484 39.6897 23.7059C39.5765 23.3962 39.494 23.0762 39.4435 22.7504C39.287 21.3781 39.2256 19.9966 39.2597 18.6159C39.2243 17.2266 39.2857 15.8365 39.4435 14.4557C39.5359 13.8563 39.7391 13.2793 40.0425 12.7542C40.6033 11.7615 41.4227 10.9394 42.4134 10.3751C43.4041 9.81083 44.5292 9.52552 45.669 9.5495C47.2153 9.50406 48.7205 10.0509 49.877 11.0783C50.953 12.0749 51.6754 13.3945 51.935 14.8379H49.0722C48.8538 14.1239 48.437 13.4866 47.8704 13.0004C47.239 12.5144 46.4621 12.2554 45.6654 12.2654C45.0984 12.2634 44.5382 12.3891 44.0263 12.6329C43.5889 12.855 43.2041 13.1683 42.898 13.5517C42.5347 13.9682 42.2931 14.4768 42.1998 15.0217C42.0352 16.2098 41.9701 17.4096 42.005 18.6086C41.9692 19.799 42.0344 20.9903 42.1998 22.1697C42.2875 22.7262 42.5294 23.2469 42.898 23.6728C43.2392 24.0749 43.6629 24.3989 44.1404 24.6228C44.6179 24.8466 45.138 24.9651 45.6654 24.9701C47.1819 24.9701 48.3163 24.1591 49.0685 22.5372L51.935 22.5446Z" fill="black"/>
<path d="M63.6084 19.743H56.5486V27.5378H53.8438V9.69531H56.5486V17.3431H63.6084V9.69531H66.3133V27.5378H63.6084V19.743Z" fill="black"/>
<path d="M88.9368 21.4706H86.3165C85.4762 21.4423 84.6797 21.0886 84.0953 20.4841C83.5109 19.8797 83.1842 19.0718 83.1842 18.231C83.1842 17.3902 83.5109 16.5823 84.0953 15.9779C84.6797 15.3734 85.4762 15.0197 86.3165 14.9914H95.5262V10.4784H86.3973C84.3713 10.5107 82.4386 11.3355 81.0135 12.7759C79.5884 14.2164 78.7843 16.1578 78.7738 18.1841C78.7632 20.2103 79.5469 22.1601 80.9569 23.6153C82.3669 25.0706 84.2909 25.9154 86.3165 25.9689H88.9368C89.3724 25.9542 89.8065 26.0273 90.2132 26.1839C90.6199 26.3405 90.991 26.5773 91.3043 26.8803C91.6176 27.1832 91.8668 27.5461 92.037 27.9474C92.2071 28.3486 92.2948 28.78 92.2948 29.2158C92.2948 29.6516 92.2071 30.083 92.037 30.4842C91.8668 30.8855 91.6176 31.2484 91.3043 31.5513C90.991 31.8543 90.6199 32.0911 90.2132 32.2477C89.8065 32.4042 89.3724 32.4774 88.9368 32.4627H79.8079V34.9581H2.06171V2.24994H94.0121V6.24107H96.0517V0.261719H0V36.9684H88.9368C90.9627 36.9242 92.8908 36.0885 94.308 34.6401C95.7252 33.1917 96.5188 31.2459 96.5188 29.2195C96.5188 27.1931 95.7252 25.2473 94.308 23.7989C92.8908 22.3505 90.9627 21.5147 88.9368 21.4706Z" fill="#2262F6"/>
<path d="M152.868 10.4805H150.325C148.271 10.4805 146.3 11.2967 144.847 12.7495C143.394 14.2024 142.578 16.1729 142.578 18.2275V36.7462H147.076V28.1833H156.113V36.7462H160.615V18.2275C160.615 16.1729 159.799 14.2024 158.346 12.7495C156.893 11.2967 154.923 10.4805 152.868 10.4805ZM156.113 23.6813H147.076V18.2275C147.078 17.3804 147.411 16.5674 148.003 15.9619C148.596 15.3564 149.401 15.0062 150.248 14.9861H152.868C153.715 14.9878 154.528 15.3204 155.133 15.913C155.738 16.5056 156.087 17.3111 156.106 18.1577V18.2349L156.113 23.6813Z" fill="#2262F6"/>
<path d="M203.998 15.0413V10.543H190.463H185.961V15.0413V21.4726V25.9709V32.3104V36.7463V36.8087H203.998V32.3104H190.463V25.9709H200.749V21.4726H190.463V15.0413H203.998Z" fill="#2262F6"/>
<path d="M182.303 18.2275C182.303 16.1729 181.487 14.2024 180.034 12.7495C178.581 11.2967 176.61 10.4805 174.556 10.4805H164.266V36.7462H168.768V25.9746H170.888L177.106 36.7462H182.303L176.004 25.8349C177.775 25.4973 179.372 24.553 180.522 23.1645C181.672 21.776 182.301 20.0302 182.303 18.2275ZM174.633 21.4726H168.753V14.9788H174.541C175.388 14.9795 176.201 15.3119 176.806 15.9046C177.412 16.4974 177.761 17.3035 177.779 18.1503V18.2275C177.779 19.0743 177.448 19.8874 176.855 20.4926C176.263 21.0978 175.458 21.447 174.611 21.4653L174.633 21.4726Z" fill="#2262F6"/>
<path d="M117.225 28.9992V18.2275C117.225 16.1729 116.409 14.2024 114.956 12.7495C113.503 11.2967 111.532 10.4805 109.478 10.4805H106.935C105.917 10.4805 104.91 10.6809 103.97 11.0702C103.03 11.4595 102.176 12.0302 101.457 12.7495C100.737 13.4689 100.167 14.3229 99.7772 15.2629C99.3879 16.2028 99.1875 17.2102 99.1875 18.2275V28.9992C99.1875 30.0165 99.3879 31.0239 99.7772 31.9638C100.167 32.9038 100.737 33.7578 101.457 34.4772C102.176 35.1965 103.03 35.7672 103.97 36.1565C104.91 36.5458 105.917 36.7462 106.935 36.7462H119.301V32.2479H116.519C116.989 31.2295 117.229 30.1206 117.225 28.9992ZM112.726 28.9992C112.725 29.8463 112.392 30.6593 111.8 31.2648C111.207 31.8703 110.402 32.2205 109.555 32.2406H106.935C106.088 32.2398 105.276 31.908 104.67 31.316C104.065 30.7241 103.716 29.9189 103.697 29.0727V18.2275C103.698 17.3807 104.029 16.5677 104.621 15.9621C105.213 15.3565 106.018 15.0062 106.865 14.9861H109.485C110.332 14.9878 111.145 15.3203 111.751 15.9128C112.356 16.5052 112.706 17.3108 112.726 18.1577V18.2349V28.9992Z" fill="#2262F6"/>
<path d="M134.41 28.9992C134.41 29.846 134.078 30.659 133.486 31.2646C132.894 31.8702 132.089 32.2204 131.242 32.2406H128.622C127.775 32.2399 126.962 31.9082 126.357 31.3163C125.751 30.7244 125.401 29.9192 125.381 29.0727V10.4805H120.875V28.9992C120.875 30.0165 121.075 31.0239 121.465 31.9638C121.854 32.9038 122.425 33.7578 123.144 34.4772C123.863 35.1965 124.717 35.7672 125.657 36.1565C126.597 36.5458 127.605 36.7462 128.622 36.7462H131.162C132.179 36.7467 133.187 36.5467 134.127 36.1576C135.068 35.7685 135.922 35.1979 136.642 34.4785C137.362 33.759 137.933 32.9049 138.322 31.9647C138.712 31.0245 138.912 30.0168 138.912 28.9992V10.4805H134.41V28.9992Z" fill="#2262F6"/>
</svg>
