<svg width="47" height="18" viewBox="0 0 47 18" fill="none" xmlns="http://www.w3.org/2000/svg">
<path d="M1.352 12.921C1.73 13.243 2.143 13.53 2.591 13.782C3.053 14.034 3.536 14.251 4.04 14.433C4.544 14.615 5.062 14.755 5.594 14.853C6.14 14.937 6.686 14.972 7.232 14.958C8.072 14.944 8.758 14.783 9.29 14.475C9.836 14.167 10.109 13.677 10.109 13.005C10.109 12.249 9.843 11.682 9.311 11.304C8.779 10.912 7.995 10.597 6.959 10.359C5.909 10.135 4.978 9.869 4.166 9.561C3.368 9.253 2.696 8.889 2.15 8.469C1.604 8.049 1.191 7.559 0.911 6.999C0.631 6.439 0.491 5.788 0.491 5.046C0.491 4.248 0.659 3.562 0.995 2.988C1.331 2.4 1.786 1.91 2.36 1.518C2.934 1.126 3.592 0.839 4.334 0.656999C5.076 0.460999 5.86 0.362999 6.686 0.362999C7.806 0.362999 8.87 0.545 9.878 0.909C10.886 1.259 11.894 1.749 12.902 2.379L11.663 4.878C10.991 4.388 10.228 3.982 9.374 3.66C8.52 3.338 7.666 3.163 6.812 3.135C6.462 3.121 6.105 3.142 5.741 3.198C5.391 3.254 5.069 3.352 4.775 3.492C4.495 3.632 4.264 3.821 4.082 4.059C3.9 4.297 3.809 4.591 3.809 4.941C3.809 5.249 3.858 5.522 3.956 5.76C4.054 5.984 4.229 6.194 4.481 6.39C4.733 6.572 5.069 6.747 5.489 6.915C5.909 7.083 6.448 7.251 7.106 7.419C8.268 7.727 9.248 8.056 10.046 8.406C10.858 8.742 11.509 9.127 11.999 9.561C12.503 9.981 12.867 10.464 13.091 11.01C13.315 11.556 13.427 12.193 13.427 12.921C13.427 13.705 13.259 14.398 12.923 15C12.587 15.588 12.132 16.085 11.558 16.491C10.984 16.897 10.298 17.205 9.5 17.415C8.716 17.625 7.876 17.73 6.98 17.73C5.706 17.73 4.474 17.513 3.284 17.079C2.108 16.645 1.037 16.092 0.0710001 15.42L1.352 12.921ZM27.1254 17.31V8.847L19.3764 10.968V17.31H16.0584V0.782999H19.3764V8.448L27.1254 6.327V0.782999H30.4434V17.31H27.1254ZM45.5836 7.587V10.149H36.9106V14.769H46.1926V17.31H33.5926V0.782999H45.9826V3.345H36.9106V7.587H45.5836Z" fill="#365CF5"/>
</svg>
