<?xml version="1.0" encoding="UTF-8"?>
<svg id="_레이어_1" data-name="레이어 1" xmlns="http://www.w3.org/2000/svg" version="1.1" viewBox="0 0 139 26">
  <defs>
    <style>
      .cls-1 {
        fill: #fff;
        stroke-width: 0px;
      }
    </style>
  </defs>
  <path class="cls-1" d="M11.2,8.3h-3.3v-1.6h8.5v1.6h-3.3v10.5h-1.8v-10.5Z"/>
  <path class="cls-1" d="M17.7,6.7h7.8v1.8h-5.9v3.5h5.1v1.6h-5.1v3.6h5.9v1.8h-7.8V6.7Z"/>
  <path class="cls-1" d="M35.4,15.4c-.2,1-.7,1.9-1.5,2.6-.8.6-1.8.9-2.8.9-.8,0-1.7-.2-2.4-.7-.6-.4-1.1-.9-1.4-1.5,0-.2-.2-.4-.3-.5,0-.2-.1-.4-.2-.7-.1-.9-.1-1.9-.1-2.8,0-.9,0-1.9.1-2.8,0-.4.2-.8.4-1.2.4-.7.9-1.2,1.6-1.6.7-.4,1.4-.6,2.2-.6,1.1,0,2.1.3,2.9,1,.7.7,1.2,1.6,1.4,2.6h-1.9c-.1-.5-.4-.9-.8-1.3-.4-.3-1-.5-1.5-.5-.4,0-.8,0-1.1.3-.3.2-.6.4-.8.6-.2.3-.4.6-.5,1-.1.8-.2,1.6-.1,2.4,0,.8,0,1.6.1,2.4,0,.4.2.7.5,1,.2.3.5.5.8.6.3.2.7.2,1,.2,1,0,1.8-.6,2.3-1.7h2Z"/>
  <path class="cls-1" d="M43.3,13.5h-4.8v5.3h-1.8V6.7h1.8v5.2h4.8v-5.2h1.8v12.2h-1.8v-5.3Z"/>
  <path class="cls-1" d="M60.6,14.7h-1.8c-.6,0-1.1-.3-1.5-.7-.4-.4-.6-1-.6-1.5s.2-1.1.6-1.5c.4-.4.9-.7,1.5-.7h6.3v-3.1h-6.2c-1.4,0-2.7.6-3.7,1.6-1,1-1.5,2.3-1.5,3.7,0,1.4.5,2.7,1.5,3.7,1,1,2.3,1.6,3.7,1.6h1.8c.3,0,.6,0,.9.1.3.1.5.3.7.5.2.2.4.5.5.7.1.3.2.6.2.9s0,.6-.2.9c-.1.3-.3.5-.5.7-.2.2-.5.4-.7.5-.3.1-.6.2-.9.1h-6.2v1.7H1.4V1.6h62.6v2.7h1.4V.3H0v25h60.6c1.4,0,2.7-.6,3.7-1.6,1-1,1.5-2.3,1.5-3.7s-.5-2.7-1.5-3.7c-1-1-2.3-1.6-3.7-1.6Z"/>
  <path class="cls-1" d="M104.1,7.2h-1.7c-1.4,0-2.7.6-3.7,1.5-1,1-1.5,2.3-1.5,3.7v12.6h3.1v-5.8h6.2v5.8h3.1v-12.6c0-1.4-.6-2.7-1.5-3.7-1-1-2.3-1.5-3.7-1.5ZM106.3,16.2h-6.2v-3.7c0-.6.2-1.1.6-1.5.4-.4,1-.7,1.5-.7h1.8c.6,0,1.1.2,1.5.6.4.4.7,1,.7,1.5h0c0,0,0,3.8,0,3.8Z"/>
  <path class="cls-1" d="M138.9,10.3v-3.1h-12.3v17.8h0s12.3,0,12.3,0v-3.1h-9.2v-4.3h7v-3.1h-7v-4.4h9.2Z"/>
  <path class="cls-1" d="M124.2,12.5c0-1.4-.6-2.7-1.5-3.7-1-1-2.3-1.5-3.7-1.5h-7v17.9h3.1v-7.3h1.4l4.2,7.3h3.5l-4.3-7.4c1.2-.2,2.3-.9,3.1-1.8.8-.9,1.2-2.1,1.2-3.4ZM118.9,14.7h-4v-4.4h3.9c.6,0,1.1.2,1.5.6.4.4.6,1,.7,1.5h0c0,.6-.2,1.2-.6,1.6-.4.4-1,.6-1.5.7h0Z"/>
  <path class="cls-1" d="M79.8,19.8v-7.3c0-1.4-.6-2.7-1.5-3.7-1-1-2.3-1.5-3.7-1.5h-1.7c-.7,0-1.4.1-2,.4-.6.3-1.2.7-1.7,1.1-.5.5-.9,1.1-1.1,1.7-.3.6-.4,1.3-.4,2v7.3c0,.7.1,1.4.4,2,.3.6.7,1.2,1.1,1.7.5.5,1.1.9,1.7,1.1.6.3,1.3.4,2,.4h8.4v-3.1h-1.9c.3-.7.5-1.4.5-2.2ZM76.8,19.8c0,.6-.2,1.1-.6,1.5-.4.4-1,.7-1.5.7h-1.8c-.6,0-1.1-.2-1.5-.6s-.7-1-.7-1.5v-7.4c0-.6.2-1.1.6-1.5.4-.4,1-.7,1.5-.7h1.8c.6,0,1.1.2,1.5.6.4.4.7,1,.7,1.5h0v7.4Z"/>
  <path class="cls-1" d="M91.5,19.8c0,.6-.2,1.1-.6,1.5-.4.4-1,.7-1.5.7h-1.8c-.6,0-1.1-.2-1.5-.6-.4-.4-.7-1-.7-1.5V7.2h-3.1v12.6c0,.7.1,1.4.4,2,.3.6.7,1.2,1.1,1.7.5.5,1.1.9,1.7,1.1.6.3,1.3.4,2,.4h1.7c.7,0,1.4-.1,2-.4.6-.3,1.2-.7,1.7-1.1.5-.5.9-1.1,1.1-1.7.3-.6.4-1.3.4-2V7.2h-3.1v12.6Z"/>
</svg>